<svg xmlns:inkscape="http://www.inkscape.org/namespaces/inkscape" xmlns:sodipodi="http://sodipodi.sourceforge.net/DTD/sodipodi-0.dtd" xmlns="http://www.w3.org/2000/svg" xmlns:svg="http://www.w3.org/2000/svg" version="1.0" id="Ebene_1" x="0px" y="0px" viewBox="0 0 62.4 62.4" style="enable-background:new 0 0 62.4 62.4;" xml:space="preserve" sodipodi:docname="OE_Logo_black.svg"><defs id="defs11" fill="#ffffff"/><sodipodi:namedview id="namedview9" pagecolor="#ffffff" bordercolor="#ffffff" borderopacity="1.0" inkscape:showpageshadow="2" inkscape:pageopacity="0.0" inkscape:pagecheckerboard="0" inkscape:deskcolor="#ffffff" showgrid="false" showguides="false" fill="#ffffff"/>
<style type="text/css" id="style2">
	.st0{fill:#ffffff;}
</style>
<g id="g6" transform="matrix(0.46418959,0,0,0.45067842,14.862939,-25.210931)">
	<path class="st0" d="m -9.214429,109.54091 c 0,-23.645237 19.314495,-42.95852 43.162914,-42.95852 22.850955,0 41.530706,17.688801 43.072238,40.07054 H 50.905345 C 49.545169,98.53053 42.472254,92.3936 33.948485,92.3936 c -9.521232,0 -17.228896,7.67116 -17.228896,17.14731 0,9.47614 7.707664,17.1473 17.228896,17.1473 8.523769,0 15.596684,-6.13693 16.95686,-14.25933 H 82.82414 v -2.88797 c 0,-26.803952 -21.944172,-48.644206 -48.875655,-48.644206 -26.9314839,0 -48.875656,21.840254 -48.875656,48.644206 0,12.00312 4.443243,23.55498 12.604298,32.57988 7.707663,8.57365 18.135678,14.07884 29.470478,15.70332 -0.272035,1.62449 -0.453392,3.33922 -0.453392,5.05395 0,15.61307 12.785653,28.33817 28.473016,28.33817 15.687363,0 28.473017,-12.7251 28.473017,-28.33817 0,-15.61308 -12.785654,-28.33818 -28.473017,-28.33818 -11.87887,0 -22.125528,7.31016 -26.387413,17.68879 C 7.3797138,149.61145 -9.214429,131.02016 -9.214429,109.54091 Z m 41.62138,53.24689 c 0,-12.45436 10.155982,-22.56224 22.6696,-22.56224 12.513619,0 22.669599,10.10788 22.669599,22.56224 0,12.45437 -10.15598,22.56226 -22.669599,22.56226 -12.513618,0 -22.6696,-10.10789 -22.6696,-22.56226 z m 12.876333,-53.24689 c 0,6.31743 -5.168668,11.37137 -11.425477,11.37137 -6.347489,0 -11.425479,-5.1442 -11.425479,-11.37137 0,-6.31743 5.168669,-11.371376 11.425479,-11.371376 6.347487,0 11.425477,5.053946 11.425477,11.371376 z" id="path4" style="stroke-width:0.904634" sodipodi:nodetypes="ssccsssccsssccsssscsssssssssss" fill="#ffffff"/>
</g>
</svg>