<?xml version="1.0" encoding="UTF-8" standalone="no"?>
<svg
   xmlns:dc="http://purl.org/dc/elements/1.1/"
   xmlns:cc="http://creativecommons.org/ns#"
   xmlns:rdf="http://www.w3.org/1999/02/22-rdf-syntax-ns#"
   xmlns:svg="http://www.w3.org/2000/svg"
   xmlns="http://www.w3.org/2000/svg"
   viewBox="0 0 581.33331 606.66669"
   height="606.66669"
   width="581.33331"
   xml:space="preserve"
   id="svg2"
   version="1.1"><metadata
     id="metadata8"><rdf:RDF><cc:Work
         rdf:about=""><dc:format>image/svg+xml</dc:format><dc:type
           rdf:resource="http://purl.org/dc/dcmitype/StillImage" /></cc:Work></rdf:RDF></metadata><defs
     id="defs6"><clipPath
       id="clipPath14"
       clipPathUnits="userSpaceOnUse"><path
         id="path12"
         d="M 0,0 H 960 V 540 H 0 Z" /></clipPath></defs><g
     clip-path="url(#clipPath14)"
     transform="matrix(1.3333333,0,0,-1.3333333,-274.66667,673.33333)"
     id="g10"><path
       id="path16"
       style="fill:none;stroke:#000000;stroke-width:7.80000019;stroke-linecap:butt;stroke-linejoin:miter;stroke-miterlimit:10;stroke-dasharray:none;stroke-opacity:1"
       d="m 265.24,203.98 c -13.75,26.84 -27.5,53.68 -35.62,74.99 -8.13,21.3 -11.88,40.3 -13.13,52.86 -1.25,12.56 1.38,14.87 5.63,22.49 4.25,7.63 10,13.06 19.87,23.25 9.87,10.18 21.75,23.49 39.37,37.87 17.62,14.37 42.37,35.61 66.37,48.36 23.99,12.75 52.99,24.06 77.61,28.12 24.62,4.06 48.25,0.06 70.12,-3.75 21.87,-3.81 43.74,-7.56 61.12,-19.12 17.37,-11.56 36.31,-30.5 43.12,-50.24 6.81,-19.75 3.62,-49.05 -2.25,-68.24 -5.88,-19.18 -20.06,-30.49 -33,-46.86 -12.93,-16.37 -36.87,-37.3 -44.62,-51.36 -7.75,-14.06 -4.75,-24.06 -1.87,-33 2.87,-8.93 16.25,-15.37 19.12,-20.62 2.87,-5.25 0.5,-8.06 -1.87,-10.87" /><path
       id="path18"
       style="fill:none;stroke:#000000;stroke-width:7.80000019;stroke-linecap:butt;stroke-linejoin:miter;stroke-miterlimit:10;stroke-dasharray:none;stroke-opacity:1"
       d="m 265.02,204.27 c 6.74,-10.44 13.48,-20.87 19.46,-27.75 5.99,-6.87 12.17,-11.5 16.47,-13.5 4.31,-2 6.12,-0.87 9.36,1.5 3.25,2.38 2.93,-0.37 10.11,12.75 7.17,13.13 24.14,46.19 32.94,66 8.79,19.81 11.29,33.93 19.84,52.87 8.54,18.94 17.53,41.19 31.44,60.75 13.91,19.56 35.19,43.31 52.03,56.62 16.84,13.31 34.94,21.44 49.03,23.25 14.1,1.81 26.52,-3.75 35.56,-12.38 9.05,-8.62 18.72,-26.56 18.72,-39.37 0,-12.81 -13.23,-27.69 -18.72,-37.5 -5.49,-9.81 -6.73,-12.56 -14.22,-21.37 -7.49,-8.81 -19.59,-21.94 -30.69,-31.5 -11.11,-9.56 -26.89,-15.81 -35.94,-25.87 -9.04,-10.07 -13.79,-21.81 -18.34,-34.5 -4.55,-12.69 -9.92,-31.19 -8.98,-41.62 0.93,-10.44 5.05,-13.94 14.6,-21 9.54,-7.07 33.93,-17.38 42.67,-21.38 8.73,-4 7.67,-2.62 9.73,-2.62 2.06,0 2.34,1.31 2.62,2.62" /><path
       id="path20"
       style="fill:none;stroke:#000000;stroke-width:7.80000019;stroke-linecap:butt;stroke-linejoin:miter;stroke-miterlimit:10;stroke-dasharray:none;stroke-opacity:1"
       d="m 535.05,187.89 c 2.38,-1.62 4.75,-3.25 6.5,-2.75 1.75,0.5 2.21,3.71 4.01,5.75 1.79,2.04 4.37,5.59 6.75,6.5 2.37,0.92 3.5,0.75 7.5,-1 4,-1.75 10.8,-4.87 16.51,-9.5 5.71,-4.62 12.29,-10.79 17.76,-18.24 5.46,-7.46 9.75,-18.25 15,-26.5 5.25,-8.25 12.26,-16.37 16.51,-23 4.25,-6.62 9.46,-10.2 9,-16.74 -0.46,-6.545 -6.63,-15.835 -11.75,-22.501 -5.13,-6.665 -13.13,-15.289 -19.01,-17.497 -5.88,-2.208 -10.09,1.5 -16.26,4.25 -6.17,2.749 -14.38,9.206 -20.76,12.248 -6.37,3.041 -11.42,3.624 -17.5,5.999 -6.09,2.374 -12.67,4.582 -19.01,8.248 -6.34,3.667 -13.34,8.163 -19.01,13.753 -5.67,5.58 -12.75,15.12 -15,19.74 -2.26,4.63 -0.17,4.92 1.5,8 1.66,3.08 7.71,8 8.5,10.5 0.79,2.5 -3.75,4.5 -3.75,4.5 v 0 0" /><path
       id="path22"
       style="fill:#000000;fill-opacity:1;fill-rule:evenodd;stroke:none"
       d="m 214.56,344.03 11,15.5 27.49,32.01 48,41.5 29.49,20 45.5,25 24.99,7 22,6.5 14.5,2.5 25.99,-0.5 39,-5.5 25,-7 15.49,-3.5 18.5,-11.5 14.5,-12.5 15,-16 8,-12.5 3.99,-16 1.5,-19.5 -2,-20.51 -4.49,-18 -5,-11.5 -9,-12.5 -59.99,-66 -8,-17.5 -1.5,-9.5 2.5,-11 2.5,-7 5.5,-6 6.49,-5.5 3,-2.5 4,-6.5 v -8.5 l 3.5,-1.5 3.5,5.5 4,5.5 5,0.5 6.5,-1.5 12.5,-6.5 11,-9.5 10.5,-12.01 8.49,-16 10.5,-15.5 11,-17 7.5,-8.5 3.5,-6 -2,-6.498 -7,-13.001 -7.5,-9 -8,-8.501 -5,-3.5 -3,-1.5 h -3.99 l -5.5,3 -24,11.501 -6.5,2.5 -4,2 -8.5,3 -8,3 -7.5,2.5 -11.49,6.501 -13,10.498 -7,10 -6,6 -2,5 -1,3.5 2.5,3.5 8,6.5 3,4.5 -5,2 h -6 l -3.5,1 -14,6.5 -22.99,11.5 -17,10.01 -5.5,8.5 -1,6.5 0.5,9.5 3,13 7.5,27 6,15.5 8,10 7.99,6 8.5,7.5 12.5,7 9,7 14,13.5 16.5,17.5 7.99,12 12,19 11.5,20 1,8.5 -3.5,17.51 -8,14.5 -12,11.5 -7.99,5 -9,3 h -11.5 l -12.5,-1.5 -13,-5 -16,-10.5 -17.49,-12.5 -10,-10 -13,-13.51 -15,-19 -11,-15 -8,-16 -9.49,-18 -9.5,-21.5 -7,-18.5 -4.5,-15 -3.5,-5 -4.5,-14.5 -8,-17 -7.5,-13 -7,-17.5 -10,-17.5 -5.49,-8.01 -7.5,-4 -6.5,-0.5 -9,5.5 -8.5,7.51 -10.5,16 -15,26.5 -11.49,23.5 -11,23 -8,19 -6.5,18 -4.5,18 v 16.5" /><path
       id="path24"
       style="fill:none;stroke:#000000;stroke-width:0.95999998;stroke-linecap:butt;stroke-linejoin:miter;stroke-miterlimit:10;stroke-dasharray:none;stroke-opacity:1"
       d="m 214.56,344.03 11,15.5 27.49,32.01 48,41.5 29.49,20 45.5,25 24.99,7 22,6.5 14.5,2.5 25.99,-0.5 39,-5.5 25,-7 15.49,-3.5 18.5,-11.5 14.5,-12.5 15,-16 8,-12.5 3.99,-16 1.5,-19.5 -2,-20.51 -4.49,-18 -5,-11.5 -9,-12.5 -59.99,-66 -8,-17.5 -1.5,-9.5 2.5,-11 2.5,-7 5.5,-6 6.49,-5.5 3,-2.5 4,-6.5 v -8.5 l 3.5,-1.5 3.5,5.5 4,5.5 5,0.5 6.5,-1.5 12.5,-6.5 11,-9.5 10.5,-12.01 8.49,-16 10.5,-15.5 11,-17 7.5,-8.5 3.5,-6 -2,-6.498 -7,-13.001 -7.5,-9 -8,-8.501 -5,-3.5 -3,-1.5 h -3.99 l -5.5,3 -24,11.501 -6.5,2.5 -4,2 -8.5,3 -8,3 -7.5,2.5 -11.49,6.501 -13,10.498 -7,10 -6,6 -2,5 -1,3.5 2.5,3.5 8,6.5 3,4.5 -5,2 h -6 l -3.5,1 -14,6.5 -22.99,11.5 -17,10.01 -5.5,8.5 -1,6.5 0.5,9.5 3,13 7.5,27 6,15.5 8,10 7.99,6 8.5,7.5 12.5,7 9,7 14,13.5 16.5,17.5 7.99,12 12,19 11.5,20 1,8.5 -3.5,17.51 -8,14.5 -12,11.5 -7.99,5 -9,3 h -11.5 l -12.5,-1.5 -13,-5 -16,-10.5 -17.49,-12.5 -10,-10 -13,-13.51 -15,-19 -11,-15 -8,-16 -9.49,-18 -9.5,-21.5 -7,-18.5 -4.5,-15 -3.5,-5 -4.5,-14.5 -8,-17 -7.5,-13 -7,-17.5 -10,-17.5 -5.49,-8.01 -7.5,-4 -6.5,-0.5 -9,5.5 -8.5,7.51 -10.5,16 -15,26.5 -11.49,23.5 -11,23 -8,19 -6.5,18 -4.5,18 v 16.5" /></g></svg>