<?xml version="1.0" encoding="UTF-8" standalone="no"?>
<svg
   xmlns:dc="http://purl.org/dc/elements/1.1/"
   xmlns:cc="http://creativecommons.org/ns#"
   xmlns:rdf="http://www.w3.org/1999/02/22-rdf-syntax-ns#"
   xmlns:svg="http://www.w3.org/2000/svg"
   xmlns="http://www.w3.org/2000/svg"
   viewBox="0 0 100 118.66667"
   height="118.66667"
   width="100"
   xml:space="preserve"
   id="svg2"
   version="1.1"><metadata
     id="metadata8"><rdf:RDF><cc:Work
         rdf:about=""><dc:format>image/svg+xml</dc:format><dc:type
           rdf:resource="http://purl.org/dc/dcmitype/StillImage" /></cc:Work></rdf:RDF></metadata><defs
     id="defs6"><clipPath
       id="clipPath14"
       clipPathUnits="userSpaceOnUse"><path
         id="path12"
         d="M 0,0 H 959.981 V 540 H 0 Z" /></clipPath><clipPath
       id="clipPath22"
       clipPathUnits="userSpaceOnUse"><path
         style="clip-rule:evenodd"
         id="path20"
         d="M 0,0.028 H 959.952 V 539.999 H 0 Z" /></clipPath></defs><g
     clip-path="url(#clipPath14)"
     transform="matrix(1.3333333,0,0,-1.3333333,-568,472)"
     id="g10"><g
       id="g16"><g
         clip-path="url(#clipPath22)"
         id="g18"><path
           id="path24"
           style="fill:none;stroke:#000000;stroke-width:8.02190971;stroke-linecap:butt;stroke-linejoin:miter;stroke-miterlimit:3.86369991;stroke-dasharray:none;stroke-opacity:1"
           d="m 435.515,310.082 c 0,15.562 12.671,28.148 28.261,28.148 15.619,0 28.29,-12.586 28.29,-28.148 0,-15.534 -12.671,-28.148 -28.29,-28.148 -15.59,0 -28.261,12.614 -28.261,28.148 z" /><path
           id="path26"
           style="fill:none;stroke:#000000;stroke-width:5.98099995;stroke-linecap:butt;stroke-linejoin:miter;stroke-miterlimit:3.86369991;stroke-dasharray:none;stroke-opacity:1"
           d="M 447.591,285.619 V 271.701" /><path
           id="path28"
           style="fill:none;stroke:#000000;stroke-width:5.98099995;stroke-linecap:butt;stroke-linejoin:miter;stroke-miterlimit:3.86369991;stroke-dasharray:none;stroke-opacity:1"
           d="M 479.991,285.619 V 271.701" /><path
           id="path30"
           style="fill:none;stroke:#000000;stroke-width:5.98099995;stroke-linecap:butt;stroke-linejoin:miter;stroke-miterlimit:3.86369991;stroke-dasharray:none;stroke-opacity:1"
           d="m 447.591,348.009 v -14.74" /><path
           id="path32"
           style="fill:none;stroke:#000000;stroke-width:5.98099995;stroke-linecap:butt;stroke-linejoin:miter;stroke-miterlimit:3.86369991;stroke-dasharray:none;stroke-opacity:1"
           d="m 479.991,348.009 v -14.74" /><path
           id="path34"
           style="fill:none;stroke:#000000;stroke-width:5.98099995;stroke-linecap:butt;stroke-linejoin:miter;stroke-miterlimit:3.86369991;stroke-dasharray:none;stroke-opacity:1"
           d="m 434.268,301.209 5.074,-10.119" /><path
           id="path36"
           style="fill:none;stroke:#000000;stroke-width:3.99677992;stroke-linecap:round;stroke-linejoin:round;stroke-miterlimit:10;stroke-dasharray:none;stroke-opacity:1"
           d="m 449.008,300.926 0.142,-0.34 0.368,-0.199 0.312,-0.085 0.397,-0.056 h 0.397 0.453 l 0.454,0.141 0.482,0.227 0.453,0.284 0.482,0.34 0.227,0.227 0.198,0.226 0.227,0.199 0.198,0.255 0.199,0.255 0.397,0.539 0.198,0.311 0.199,0.256 0.17,0.311 0.198,0.284 0.198,0.283 0.171,0.284 0.198,0.283 0.227,0.284 0.198,0.283 0.199,0.255 0.198,0.284 0.17,0.283 0.199,0.312 0.198,0.312 0.198,0.283 0.17,0.34 0.171,0.312 0.198,0.34 0.142,0.312 0.17,0.34 0.17,0.369 0.17,0.34 0.142,0.369 0.141,0.368 0.142,0.397 0.17,0.368 0.142,0.397 0.142,0.397 0.113,0.369 0.142,0.368 0.142,0.369 0.113,0.34 0.113,0.34 0.142,0.312 0.085,0.283 0.113,0.312 0.114,0.283 0.113,0.284 0.114,0.312 0.113,0.312 0.142,0.311 0.113,0.34 0.114,0.312 0.113,0.312 0.113,0.312 0.085,0.312 0.227,0.538 0.113,0.482 0.114,0.454 0.085,0.482 0.057,0.51 0.085,0.453 0.056,0.426 0.057,0.368 0.057,0.312 0.085,0.68 0.028,0.312 v 0.737" /><path
           id="path38"
           style="fill:none;stroke:#000000;stroke-width:3.99677992;stroke-linecap:round;stroke-linejoin:round;stroke-miterlimit:10;stroke-dasharray:none;stroke-opacity:1"
           d="m 463.294,323.291 0.057,-0.311 0.057,-0.369 0.085,-0.397 0.085,-0.397 0.028,-0.482 0.029,-0.51 0.028,-0.538 v -0.567 -5.755 l 0.028,-0.311 0.057,-0.312 0.057,-0.312 0.056,-0.312 0.085,-0.312 0.114,-0.312 0.142,-0.311 0.141,-0.284 0.227,-0.312 0.199,-0.226 0.255,-0.227 0.226,-0.199 0.199,-0.226 0.227,-0.312 0.226,-0.369 0.227,-0.34 0.34,-0.34 0.227,-0.198 0.34,0.028 0.17,0.283 0.114,0.341 0.113,0.425 0.113,0.34 0.114,0.368 0.057,0.369 0.085,0.425 0.085,0.397 0.085,0.397 0.113,0.397 0.113,0.368 0.114,0.312 0.142,0.312 0.141,0.368 0.114,0.34 0.198,-0.283 0.085,-0.397 0.057,-0.34 0.028,-0.369 0.057,-0.34 0.085,-0.368 0.057,-0.397 0.085,-0.397 0.056,-0.453 0.085,-0.482 0.057,-0.482 0.085,-0.51 0.085,-0.482 0.142,-0.511 0.142,-0.51 0.17,-0.482 0.17,-0.425 0.198,-0.368 0.17,-0.341 0.17,-0.283 0.255,-0.34 0.341,-0.369 0.396,-0.397 0.341,-0.311 0.255,-0.255 0.283,-0.256 0.284,-0.198 0.283,-0.227 0.312,-0.227 0.312,-0.17 0.368,-0.226 0.397,-0.17 0.425,-0.142 0.397,-0.114 0.34,-0.113 0.312,-0.085 0.425,-0.085 0.426,-0.085 0.396,-0.028 h 0.397 l 0.425,0.028 h 0.426 l 0.453,0.057 0.34,0.085 0.312,0.028" /></g></g></g></svg>